HIERARCHY
ROOT Hips
{
	OFFSET 0.00 0.00 0.00
	CHANNELS 6 Xposition Yposition Zposition Xrotation Yrotation Zrotation
	JOINT Spine
	{
		OFFSET 0.00000 0.84964 1.27446
		CHANNELS 3 Xrotation Yrotation Zrotation
		JOINT Spine1
		{
			OFFSET 0.00000 0.29508 1.67346
			CHANNELS 3 Xrotation Yrotation Zrotation
			JOINT Spine2
			{
				OFFSET 0.00000 0.14810 1.69281
				CHANNELS 3 Xrotation Yrotation Zrotation
				JOINT Spine3
				{
					OFFSET 0.00000 0.00000 1.69928
					CHANNELS 3 Xrotation Yrotation Zrotation
					JOINT Neck
					{
						OFFSET 0.00000 -0.63723 4.46061
						CHANNELS 3 Xrotation Yrotation Zrotation
						JOINT Head
						{
							OFFSET 0.00000 -0.40573 2.30101
							CHANNELS 3 Xrotation Yrotation Zrotation
							End Site
							{
								OFFSET 0.00000 0.00000 2.75071
							}
						}
					}
					JOINT RightShoulder
					{
						OFFSET -0.72014 -1.20022 3.88874
						CHANNELS 3 Xrotation Yrotation Zrotation
						JOINT RightArm
						{
							OFFSET -3.57668 0.00000 0.00000
							CHANNELS 3 Xrotation Yrotation Zrotation
							JOINT RightForeArm
							{
								OFFSET -5.92485 0.00000 0.00000
								CHANNELS 3 Xrotation Yrotation Zrotation
								JOINT RightHand
								{
									OFFSET -6.63013 0.00000 0.00000
									CHANNELS 3 Xrotation Yrotation Zrotation
									JOINT RightHandEnd
									{
										OFFSET -1.65321 0.00000 0.00000
										CHANNELS 3 Xrotation Yrotation Zrotation
										End Site
										{
											OFFSET -1.65321 0.00000 0.00000
										}
									}
									JOINT RightHandThumb1
									{
										OFFSET -0.66129 -1.10214 -0.44086
										CHANNELS 3 Yrotation Xrotation Zrotation
										End Site
										{
											OFFSET -1.59688 -0.42788 0.00000
										}
									}
								}
							}
						}
					}
					JOINT LeftShoulder
					{
						OFFSET 0.72014 -1.20022 3.88874
						CHANNELS 3 Xrotation Yrotation Zrotation
						JOINT LeftArm
						{
							OFFSET 3.57668 0.00000 0.00000
							CHANNELS 3 Xrotation Yrotation Zrotation
							JOINT LeftForeArm
							{
								OFFSET 5.92485 0.00000 0.00000
								CHANNELS 3 Xrotation Yrotation Zrotation
								JOINT LeftHand
								{
									OFFSET 6.63013 0.00000 0.00000
									CHANNELS 3 Xrotation Yrotation Zrotation
									JOINT LeftHandEnd
									{
										OFFSET 1.65321 0.00000 0.00000
										CHANNELS 3 Xrotation Yrotation Zrotation
										End Site
										{
											OFFSET 1.65321 0.00000 0.00000
										}
									}
									JOINT LeftHandThumb1
									{
										OFFSET 0.66129 -1.10214 -0.44086
										CHANNELS 3 Yrotation Xrotation Zrotation
										End Site
										{
											OFFSET 1.59688 -0.42788 0.00000
										}
									}
								}
							}
						}
					}
				}
			}
		}
	}
	JOINT RightUpLeg
	{
		OFFSET -2.13640 0.00000 -0.62412
		CHANNELS 3 Xrotation Yrotation Zrotation
		JOINT RightLeg
		{
			OFFSET 0.00000 0.00000 -11.49360
			CHANNELS 3 Xrotation Yrotation Zrotation
			JOINT RightFoot
			{
				OFFSET 0.00000 0.00000 -8.79036
				CHANNELS 3 Xrotation Yrotation Zrotation
				JOINT RightToeBase
				{
					OFFSET 0.00000 -3.94625 -1.43632
					CHANNELS 3 Xrotation Yrotation Zrotation
					End Site
					{
						OFFSET 0.00000 -1.72833 -0.00000
					}
				}
			}
		}
	}
	JOINT LeftUpLeg
	{
		OFFSET 2.13640 0.00000 -0.62412
		CHANNELS 3 Xrotation Yrotation Zrotation
		JOINT LeftLeg
		{
			OFFSET 0.00000 0.00000 -11.49360
			CHANNELS 3 Xrotation Yrotation Zrotation
			JOINT LeftFoot
			{
				OFFSET 0.00000 0.00000 -8.79036
				CHANNELS 3 Xrotation Yrotation Zrotation
				JOINT LeftToeBase
				{
					OFFSET 0.00000 -3.94625 -1.43632
					CHANNELS 3 Xrotation Yrotation Zrotation
					End Site
					{
						OFFSET 0.00000 -1.72833 -0.00000
					}
				}
			}
		}
	}
}
MOTION
Frames: 16
Frame Time: 0.008342
 0.4531 -1.7923 23.6231 0.1306 -0.9953 176.9886 -3.6537 -4.2071 0.2963 -1.2015 -2.4645 -0.2469 6.6245 -0.6466 8.6154 0.7948 4.8248 -0.3613 -9.1450 8.6339 2.2451 3.3707 -1.6682 -5.6243 -0.6320 -5.2004 7.8342 -44.7826 -23.6111 -20.3945 -0.0000 0.0001 73.6939 31.6002 39.2437 -5.1767 -0.0000 0.0000 -0.0000 -0.0000 -0.0000 -0.0000 -2.0500 18.7178 4.4286 8.6813 59.9254 -4.6647 -0.0000 -0.0000 -14.7722 -5.8239 -20.2351 14.5663 0.0000 -0.0000 -0.0000 -0.0000 -0.0000 -0.0000 3.2328 2.7506 -48.9035 -3.8606 0.0000 -0.0000 20.4246 -14.6702 44.5616 -29.9245 0.0000 -0.0000 4.4487 -3.5624 18.4663 -6.3177 0.0000 -0.0000 -1.0948 -4.9132 -19.7432 -4.6532 0.0000 -0.0000
 0.4394 -1.7880 23.6226 0.1704 -0.9554 176.9390 -3.6817 -4.3418 0.2798 -1.2080 -2.5138 -0.2597 6.7487 -0.6889 8.6919 0.8688 4.9316 -0.3856 -9.1576 8.7691 2.2182 3.2960 -1.5157 -5.7944 -1.1076 -4.9605 7.9257 -47.1689 -24.1825 -21.5289 -0.0000 0.0001 75.1205 31.6248 40.6346 -5.0802 0.0000 -0.0000 -0.0000 -0.0000 0.0000 0.0000 -1.9973 19.0848 4.4101 9.1470 60.9936 -5.3421 -0.0000 -0.0000 -14.1382 -6.0310 -19.9188 14.7838 -0.0000 0.0000 -0.0000 -0.0000 0.0000 0.0000 3.2984 2.8061 -48.8392 -3.9455 0.0000 -0.0000 20.4885 -14.7009 44.5580 -29.9196 0.0000 -0.0000 4.5204 -3.4768 18.4820 -6.3508 0.0000 -0.0000 -1.0840 -4.9017 -19.7150 -4.6575 0.0000 -0.0000
 0.4277 -1.7846 23.6221 0.1727 -0.9214 176.9004 -3.7599 -4.4800 0.2597 -1.2173 -2.5613 -0.2730 6.8894 -0.7267 8.7653 0.9512 5.0617 -0.4210 -9.1725 8.8693 2.1623 3.2212 -1.3693 -6.0042 -1.6645 -4.7212 8.0044 -49.5774 -24.8367 -22.6632 -0.0000 0.0001 76.4753 31.5917 42.1698 -4.9647 0.0000 -0.0000 0.0000 0.0000 -0.0000 0.0000 -1.9435 19.4037 4.3863 9.2269 62.0023 -5.6514 -0.0000 -0.0000 -13.5826 -6.2126 -19.6153 14.9681 0.0000 0.0000 0.0000 0.0000 0.0000 -0.0000 3.3247 2.8472 -48.7959 -4.0295 0.0000 -0.0000 20.5512 -14.7224 44.5605 -29.9156 0.0000 -0.0000 4.5471 -3.4062 18.4917 -6.3790 0.0000 -0.0000 -1.0739 -4.8904 -19.6914 -4.6598 0.0000 -0.0000
 0.4184 -1.7810 23.6216 0.2102 -0.8909 176.8654 -3.7943 -4.6169 0.2416 -1.2374 -2.6109 -0.2841 7.0290 -0.7293 8.8270 1.0329 5.1786 -0.4485 -9.1812 8.9510 2.0755 3.1549 -1.2334 -6.2623 -2.3063 -4.4441 8.0661 -52.0050 -25.5997 -23.8303 -0.0000 0.0001 77.7614 31.5340 43.8058 -4.8926 -0.0000 0.0000 0.0000 -0.0000 -0.0000 0.0000 -1.8819 19.6643 4.3473 8.8568 62.9497 -5.5176 -0.0000 -0.0000 -13.1166 -6.3695 -19.3395 15.1137 0.0000 -0.0000 -0.0000 0.0000 -0.0000 -0.0000 3.3878 2.8826 -48.7427 -4.1091 0.0000 -0.0000 20.6027 -14.7478 44.5477 -29.9125 0.0000 -0.0000 4.6120 -3.3430 18.4888 -6.4124 0.0000 -0.0000 -1.0583 -4.8785 -19.6569 -4.6605 0.0000 -0.0000
 0.4120 -1.7786 23.6211 0.2002 -0.8709 176.8326 -3.8779 -4.7519 0.2215 -1.2596 -2.6582 -0.2922 7.1724 -0.7401 8.8962 1.1184 5.3224 -0.4870 -9.1913 8.9972 1.9595 3.1046 -1.1118 -6.5730 -3.0107 -4.1764 8.1124 -54.4170 -26.4405 -24.9787 -0.0000 0.0001 78.9774 31.5189 45.4960 -4.9427 0.0000 -0.0000 0.0000 -0.0000 -0.0000 -0.0000 -1.8316 19.8581 4.3133 8.0347 63.7985 -4.9223 -0.0000 -0.0000 -12.7468 -6.4973 -19.1043 15.2242 -0.0000 0.0000 0.0000 0.0000 0.0000 0.0000 3.3992 2.8969 -48.7091 -4.1860 0.0000 -0.0000 20.6543 -14.7588 44.5472 -29.9088 0.0000 -0.0000 4.6220 -3.3027 18.4817 -6.4379 0.0000 -0.0000 -1.0461 -4.8681 -19.6197 -4.6564 0.0000 -0.0000
 0.4084 -1.7766 23.6206 0.1879 -0.8530 176.7938 -3.9529 -4.8804 0.2062 -1.2853 -2.7026 -0.3003 7.3054 -0.7341 8.9743 1.2010 5.4604 -0.5220 -9.1986 9.0275 1.8145 3.0755 -1.0091 -6.9411 -3.7610 -3.8925 8.1444 -56.7742 -27.3531 -26.1113 -0.0000 0.0001 80.1427 31.6309 47.1729 -5.1681 0.0000 -0.0000 0.0000 -0.0000 0.0000 -0.0000 -1.7859 19.9856 4.2815 6.7927 64.5270 -3.8896 -0.0000 -0.0000 -12.4794 -6.5973 -18.9218 15.3080 0.0000 0.0000 0.0000 0.0000 -0.0000 0.0000 3.4039 2.9056 -48.6656 -4.2525 0.0000 -0.0000 20.6951 -14.7681 44.5401 -29.9054 0.0000 -0.0000 4.6281 -3.2725 18.4673 -6.4597 0.0000 -0.0000 -1.0323 -4.8600 -19.5680 -4.6491 0.0000 -0.0000
 0.4077 -1.7754 23.6201 0.1486 -0.8395 176.7456 -4.0457 -5.0019 0.1998 -1.3078 -2.7522 -0.3226 7.4245 -0.7071 9.0808 1.2794 5.5950 -0.5573 -9.2063 9.0379 1.6416 3.0737 -0.9237 -7.3671 -4.5283 -3.6187 8.1661 -58.9879 -28.2990 -27.1621 -0.0000 0.0001 81.2670 31.9600 48.7777 -5.6000 -0.0000 0.0000 -0.0000 -0.0000 0.0000 -0.0000 -1.7558 20.0499 4.2594 5.2145 65.0980 -2.4852 -0.0000 -0.0000 -12.3188 -6.6644 -18.7986 15.3753 -0.0000 -0.0000 -0.0000 -0.0000 0.0000 0.0000 3.3750 2.9052 -48.6135 -4.3065 0.0000 -0.0000 20.7258 -14.7717 44.5303 -29.9003 0.0000 -0.0000 4.6040 -3.2566 18.4507 -6.4747 0.0000 -0.0000 -1.0193 -4.8551 -19.5041 -4.6379 0.0000 -0.0000
 0.4104 -1.7747 23.6198 0.0851 -0.8398 176.6883 -4.1481 -5.1163 0.1929 -1.3333 -2.8049 -0.3270 7.5319 -0.6799 9.1918 1.3504 5.7303 -0.5870 -9.2129 9.0290 1.4430 3.0999 -0.8561 -7.8486 -5.2626 -3.3701 8.1893 -60.9582 -29.2382 -28.0503 -0.0000 0.0001 82.3570 32.5622 50.2646 -6.2154 0.0000 -0.0000 -0.0000 -0.0000 -0.0000 0.0000 -1.7410 20.0564 4.2459 3.4123 65.4854 -0.8127 -0.0000 -0.0000 -12.2644 -6.6876 -18.7328 15.4350 -0.0000 -0.0000 0.0000 0.0000 0.0000 0.0000 3.3175 2.8827 -48.5549 -4.3542 0.0000 -0.0000 20.7508 -14.7657 44.5202 -29.8927 0.0000 -0.0000 4.5537 -3.2659 18.4349 -6.4831 0.0000 -0.0000 -1.0110 -4.8522 -19.4302 -4.6239 0.0000 -0.0000
 0.4157 -1.7740 23.6194 0.0181 -0.8433 176.6201 -4.2360 -5.2133 0.1917 -1.3566 -2.8565 -0.3281 7.6159 -0.6521 9.3240 1.4155 5.8539 -0.6119 -9.2207 9.0084 1.2240 3.1555 -0.8036 -8.3802 -5.9353 -3.1361 8.2237 -62.5527 -30.1497 -28.7030 -0.0000 0.0001 83.4167 33.4491 51.6112 -6.9333 0.0000 -0.0000 -0.0000 0.0000 -0.0000 -0.0000 -1.7376 20.0211 4.2454 1.5832 65.6714 0.9305 -0.0000 -0.0000 -12.3077 -6.6724 -18.7187 15.4927 -0.0000 -0.0000 -0.0000 -0.0000 -0.0000 0.0000 3.2526 2.8538 -48.4836 -4.3911 0.0000 -0.0000 20.7655 -14.7569 44.5074 -29.8824 0.0000 -0.0000 4.5003 -3.2858 18.4210 -6.4868 0.0000 -0.0000 -1.0038 -4.8524 -19.3464 -4.6079 0.0000 -0.0000
 0.4235 -1.7734 23.6192 -0.0560 -0.8537 176.5435 -4.3172 -5.2987 0.1975 -1.3789 -2.9068 -0.3318 7.6867 -0.6213 9.4800 1.4695 5.9685 -0.6368 -9.2305 8.9649 0.9893 3.2370 -0.7595 -8.9506 -6.5232 -2.9265 8.2879 -63.6204 -31.0000 -29.0283 -0.0000 0.0001 84.4420 34.5708 52.8211 -7.6228 -0.0000 0.0000 -0.0000 0.0000 -0.0000 0.0000 -1.7651 19.9547 4.2663 -0.0902 65.6494 2.5812 -0.0000 -0.0000 -12.4398 -6.6113 -18.7446 15.5494 -0.0000 0.0000 0.0000 0.0000 -0.0000 0.0000 3.1761 2.8160 -48.3935 -4.4137 0.0000 -0.0000 20.7659 -14.7467 44.4837 -29.8688 0.0000 -0.0000 4.4398 -3.3198 18.4136 -6.4853 0.0000 -0.0000 -0.9996 -4.8551 -19.2597 -4.5919 0.0000 -0.0000
 0.4334 -1.7726 23.6190 -0.1400 -0.8713 176.4629 -4.4006 -5.3700 0.2085 -1.3917 -2.9609 -0.3330 7.7403 -0.5884 9.6476 1.5143 6.0757 -0.6543 -9.2442 8.8930 0.7379 3.3401 -0.7185 -9.5452 -7.0023 -2.7427 8.3739 -64.0208 -31.7758 -28.9212 -0.0000 0.0001 85.4160 35.8581 53.9276 -8.1479 0.0000 0.0000 -0.0000 0.0000 0.0000 -0.0000 -1.8131 19.8756 4.2994 -1.4275 65.4248 3.9524 -0.0000 -0.0000 -12.6469 -6.5105 -18.8006 15.6013 0.0000 -0.0000 -0.0000 -0.0000 -0.0000 0.0000 3.0878 2.7677 -48.2915 -4.4272 0.0000 -0.0000 20.7557 -14.7341 44.4522 -29.8518 0.0000 -0.0000 4.3689 -3.3677 18.4133 -6.4781 0.0000 -0.0000 -0.9999 -4.8596 -19.1750 -4.5768 0.0000 -0.0000
 0.4450 -1.7716 23.6189 -0.2347 -0.8955 176.3861 -4.4867 -5.4251 0.2238 -1.3990 -3.0172 -0.3352 7.7768 -0.5522 9.8226 1.5513 6.1628 -0.6660 -9.2608 8.7967 0.4781 3.4573 -0.6758 -10.1505 -7.3671 -2.5672 8.4876 -63.6437 -32.4493 -28.3255 -0.0000 0.0001 86.3319 37.2265 54.9556 -8.3784 -0.0000 -0.0000 -0.0000 0.0000 -0.0000 0.0000 -1.8851 19.8186 4.3377 -2.3150 65.0017 4.9400 -0.0000 -0.0000 -12.9203 -6.3698 -18.8712 15.6471 0.0000 0.0000 0.0000 -0.0000 0.0000 -0.0000 2.9886 2.7099 -48.1794 -4.4322 0.0000 -0.0000 20.7335 -14.7217 44.4075 -29.8313 0.0000 -0.0000 4.2860 -3.4281 18.4187 -6.4656 0.0000 -0.0000 -1.0046 -4.8652 -19.0990 -4.5627 0.0000 -0.0000
 0.4575 -1.7693 23.6188 -0.2879 -0.9262 176.3192 -4.5242 -5.4669 0.2430 -1.4029 -3.0593 -0.3363 7.8032 -0.5368 9.9986 1.5775 6.2491 -0.6769 -9.2798 8.6599 0.2123 3.5818 -0.6224 -10.7455 -7.6161 -2.3926 8.6239 -62.4260 -32.9859 -27.2021 -0.0000 0.0001 87.1753 38.6178 55.9178 -8.2325 -0.0000 0.0000 -0.0000 -0.0000 0.0000 -0.0000 -1.9518 19.7798 4.3921 -2.5844 64.4238 5.3359 -0.0000 -0.0000 -13.2243 -6.2190 -18.9643 15.6713 -0.0000 -0.0000 0.0000 0.0000 -0.0000 0.0000 2.9368 2.6459 -48.0649 -4.4344 0.0000 -0.0000 20.7015 -14.7131 44.3533 -29.8081 0.0000 -0.0000 4.2499 -3.4941 18.4351 -6.4578 0.0000 -0.0000 -1.0104 -4.8688 -19.0422 -4.5525 0.0000 -0.0000
 0.4703 -1.7662 23.6188 -0.3262 -0.9553 176.2715 -4.5473 -5.4877 0.2653 -1.4041 -3.0957 -0.3368 7.8248 -0.5267 10.1572 1.5946 6.3171 -0.6837 -9.3024 8.4922 -0.0493 3.7034 -0.5583 -11.3151 -7.7609 -2.1976 8.7775 -60.3667 -33.3396 -25.5691 -0.0000 0.0001 87.9493 40.0137 56.7927 -7.6927 -0.0000 0.0000 0.0000 -0.0000 0.0000 0.0000 -2.0347 19.7903 4.4530 -2.2743 63.6997 5.2085 -0.0000 -0.0000 -13.5578 -6.0522 -19.0664 15.6708 0.0000 0.0000 -0.0000 0.0000 -0.0000 0.0000 2.9041 2.5854 -47.9496 -4.4295 0.0000 -0.0000 20.6559 -14.7124 44.2817 -29.7839 0.0000 -0.0000 4.2267 -3.5589 18.4525 -6.4470 0.0000 -0.0000 -1.0178 -4.8716 -19.0049 -4.5469 0.0000 -0.0000
 0.4831 -1.7625 23.6188 -0.3590 -0.9854 176.2494 -4.5723 -5.4965 0.2840 -1.4000 -3.1266 -0.3354 7.8444 -0.5176 10.2942 1.6055 6.3739 -0.6880 -9.3273 8.2850 -0.3052 3.8135 -0.4809 -11.8418 -7.8142 -1.9862 8.9429 -57.5203 -33.4400 -23.4742 -0.0000 0.0001 88.6614 41.4417 57.5401 -6.8232 -0.0000 -0.0000 -0.0000 -0.0000 -0.0000 0.0000 -2.1263 19.8496 4.5021 -1.4613 62.8550 4.6356 -0.0000 -0.0000 -13.9111 -5.8680 -19.1786 15.6357 0.0000 0.0000 0.0000 -0.0000 -0.0000 0.0000 2.8818 2.5239 -47.8468 -4.4214 0.0000 -0.0000 20.6010 -14.7160 44.1987 -29.7613 0.0000 -0.0000 4.2050 -3.6253 18.4730 -6.4328 0.0000 -0.0000 -1.0289 -4.8724 -18.9956 -4.5446 0.0000 -0.0000
 0.4955 -1.7580 23.6188 -0.3738 -1.0128 176.2607 -4.5893 -5.4946 0.2997 -1.3934 -3.1480 -0.3330 7.8679 -0.5101 10.3967 1.6098 6.4241 -0.6921 -9.3552 8.0344 -0.5479 3.9051 -0.3897 -12.3107 -7.7867 -1.7546 9.1135 -54.0092 -33.2351 -21.0082 -0.0000 0.0001 89.3231 42.9894 58.1194 -5.7879 -0.0000 -0.0000 0.0000 -0.0000 0.0000 0.0000 -2.2160 19.9549 4.5418 -0.1955 61.9123 3.6560 -0.0000 -0.0000 -14.2735 -5.6804 -19.3138 15.5734 0.0000 -0.0000 -0.0000 0.0000 0.0000 0.0000 2.8845 2.4667 -47.7641 -4.4113 0.0000 -0.0000 20.5369 -14.7266 44.1045 -29.7402 0.0000 -0.0000 4.1967 -3.6876 18.4919 -6.4170 0.0000 -0.0000 -1.0415 -4.8701 -19.0178 -4.5464 0.0000 -0.0000
